<svg width="30" height="30" viewBox="0 0 30 30" fill="none" xmlns="http://www.w3.org/2000/svg">
<g clip-path="url(#clip0_3_22)">
<path d="M21.8792 0H8.12071C3.64288 0 0 3.64288 0 8.12071V21.8795C0 26.3571 3.64288 29.9999 8.12071 29.9999H21.8795C26.3571 29.9999 29.9999 26.3571 29.9999 21.8795V8.12071C29.9999 3.64288 26.3571 0 21.8792 0V0ZM28.2412 21.8795C28.2412 25.3873 25.3873 28.2412 21.8792 28.2412H8.12071C4.61265 28.2412 1.75872 25.3873 1.75872 21.8795V8.12071C1.75872 4.61265 4.61265 1.75872 8.12071 1.75872H21.8795C25.3873 1.75872 28.2412 4.61265 28.2412 8.12071V21.8795Z" fill="#28272a"/>
<path d="M14.9999 6.79712C10.4768 6.79712 6.79706 10.4768 6.79706 15C6.79706 19.5232 10.4768 23.2029 14.9999 23.2029C19.5231 23.2029 23.2028 19.5232 23.2028 15C23.2028 10.4768 19.5231 6.79712 14.9999 6.79712ZM14.9999 21.4442C11.4468 21.4442 8.55578 18.5534 8.55578 15C8.55578 11.4468 11.4468 8.55584 14.9999 8.55584C18.5533 8.55584 21.4441 11.4468 21.4441 15C21.4441 18.5534 18.5533 21.4442 14.9999 21.4442Z" fill="#28272a"/>
<path d="M23.399 3.88379C22.0623 3.88379 20.9752 4.9712 20.9752 6.30764C20.9752 7.64431 22.0623 8.73173 23.399 8.73173C24.7357 8.73173 25.8231 7.64431 25.8231 6.30764C25.8231 4.97098 24.7357 3.88379 23.399 3.88379ZM23.399 6.97277C23.0323 6.97277 22.7339 6.67431 22.7339 6.30764C22.7339 5.94075 23.0323 5.64251 23.399 5.64251C23.7659 5.64251 24.0644 5.94075 24.0644 6.30764C24.0644 6.67431 23.7659 6.97277 23.399 6.97277Z" fill="#28272a"/>
</g>
<defs>
<clipPath id="clip0_3_22">
<rect width="30" height="30" fill="#28272a"/>
</clipPath>
</defs>
</svg>
